<svg id="Group_29450" data-name="Group 29450" xmlns="http://www.w3.org/2000/svg" width="30" height="13.925" viewBox="0 0 30 13.925">
  <path id="Path_21929" data-name="Path 21929" d="M5064.549,1083.528h28.489a.514.514,0,0,0,0-1.028h-28.489a.514.514,0,0,0,0,1.028Z" transform="translate(-5064.035 -1076.044)" fill="#fff"/>
  <path id="Path_21930" data-name="Path 21930" d="M5064.08,1089.816a.513.513,0,0,0,.359-.146l6.608-6.448a.515.515,0,0,0,0-.736l-6.608-6.448a.514.514,0,1,0-.718.736l6.231,6.081-6.231,6.08a.514.514,0,0,0,.359.882Z" transform="translate(-5041.202 -1075.891)" fill="#fff"/>
</svg>
